<svg width="139" height="28" viewBox="0 0 139 28" fill="none" xmlns="http://www.w3.org/2000/svg">
<path d="M8.10888 4.05444C8.10888 6.29365 6.29365 8.10889 4.05444 8.10889C1.81524 8.10889 0 6.29365 0 4.05444C0 1.81524 1.81524 0 4.05444 0C6.29365 0 8.10888 1.81524 8.10888 4.05444Z" fill="#F36B1C"/>
<path d="M12.8696 14.4383L12.7288 14.2944L0 27.2358L7.335 27.2949L12.7516 21.7786L18.1789 27.3325L25.4769 27.2357L12.8799 14.4282L12.8696 14.4383Z" fill="#F36B1C"/>
<path d="M23.2354 0.198095L15.8408 0.198095L0 16.4271L3.2175e-07 23.8218L23.2354 0.198095Z" fill="#F36B1C"/>
<path d="M30.4949 3.11886C30.4949 2.62617 30.8943 2.22676 31.387 2.22676H38.8218C39.4177 2.22676 39.9979 2.26858 40.5624 2.35221C41.1374 2.42539 41.6758 2.5613 42.1776 2.75993C42.6899 2.95856 43.1551 3.23037 43.5733 3.57537C43.9914 3.9099 44.3521 4.34376 44.6553 4.87692C44.9689 5.41009 45.2093 6.04781 45.3766 6.79006C45.5439 7.53231 45.6275 8.40525 45.6275 9.40886C45.6275 10.0779 45.57 10.6791 45.455 11.2122C45.3505 11.7349 45.2041 12.2002 45.0159 12.6079C44.8382 13.0156 44.6291 13.371 44.3887 13.6742C44.1587 13.9774 43.9235 14.2387 43.683 14.4583C43.1141 14.9548 42.4736 15.3029 41.7614 15.5026C41.7479 15.5064 41.7385 15.5187 41.7385 15.5327C41.7385 15.5377 41.7397 15.5426 41.742 15.5471L45.7795 23.3C46.0888 23.8939 45.6579 24.6042 44.9882 24.6042H42.7086C42.3731 24.6042 42.066 24.416 41.9137 24.1171L38.2232 16.8742C38.0709 16.5753 37.7638 16.3871 37.4283 16.3871H35.1506C34.6579 16.3871 34.2585 16.7865 34.2585 17.2792V23.7121C34.2585 24.2048 33.8591 24.6042 33.3664 24.6042H31.387C30.8943 24.6042 30.4949 24.2048 30.4949 23.7121V3.11886ZM38.7904 12.8431C40.7558 12.8431 41.7385 11.6252 41.7385 9.18932C41.7385 8.55161 41.6653 8.01321 41.519 7.57413C41.3831 7.1246 41.1792 6.76392 40.9074 6.49211C40.646 6.2203 40.3272 6.0269 39.9508 5.9119C39.5745 5.78645 39.1563 5.72372 38.6963 5.72372H35.1506C34.6579 5.72372 34.2585 6.12313 34.2585 6.61582V11.951C34.2585 12.4437 34.6579 12.8431 35.1506 12.8431H38.7904Z" fill="white"/>
<path d="M52.5587 5.25328C52.1301 5.25328 51.7746 5.22192 51.4924 5.15919C51.2206 5.09647 50.9958 4.9867 50.8181 4.82988C50.6508 4.67307 50.5306 4.45875 50.4574 4.18694C50.3947 3.91513 50.3633 3.56491 50.3633 3.13629C50.3633 2.70766 50.3947 2.35744 50.4574 2.08563C50.5306 1.80336 50.6508 1.5786 50.8181 1.41133C50.9958 1.24406 51.2206 1.12906 51.4924 1.06634C51.7746 1.00361 52.1301 0.972249 52.5587 0.972249C52.9873 0.972249 53.3376 1.00361 53.6094 1.06634C53.8916 1.12906 54.1164 1.24406 54.2837 1.41133C54.4509 1.5786 54.5659 1.80336 54.6287 2.08563C54.6914 2.35744 54.7227 2.70766 54.7227 3.13629C54.7227 3.56491 54.6914 3.91513 54.6287 4.18694C54.5659 4.45875 54.4509 4.67307 54.2837 4.82988C54.1164 4.9867 53.8916 5.09647 53.6094 5.15919C53.3376 5.22192 52.9873 5.25328 52.5587 5.25328ZM50.6926 8.95236C50.6926 8.45966 51.092 8.06026 51.5847 8.06026H53.5327C54.0254 8.06026 54.4248 8.45966 54.4248 8.95236V23.7121C54.4248 24.2048 54.0254 24.6042 53.5327 24.6042H51.5847C51.092 24.6042 50.6926 24.2048 50.6926 23.7121V8.95236Z" fill="white"/>
<path d="M59.1136 22.4307C59.1136 22.2335 59.1789 22.0418 59.2994 21.8857L67.4826 11.2813C67.4857 11.2772 67.4874 11.2721 67.4874 11.267C67.4874 11.2541 67.477 11.2436 67.4641 11.2436H60.3193C59.8266 11.2436 59.4272 10.8442 59.4272 10.3515V8.95235C59.4272 8.45966 59.8266 8.06026 60.3193 8.06026H71.7388C72.2315 8.06026 72.6309 8.45966 72.6309 8.95236V10.1076C72.6309 10.3052 72.5653 10.4973 72.4444 10.6536L64.2149 21.2891C64.2117 21.2932 64.21 21.2982 64.21 21.3034C64.21 21.3163 64.2205 21.3267 64.2334 21.3267H71.927C72.4197 21.3267 72.8191 21.7262 72.8191 22.2188V23.7121C72.8191 24.2048 72.4197 24.6042 71.927 24.6042H60.0057C59.513 24.6042 59.1136 24.2048 59.1136 23.7121V22.4307Z" fill="white"/>
<path d="M76.2377 22.4307C76.2377 22.2335 76.303 22.0418 76.4235 21.8857L84.6067 11.2813C84.6099 11.2772 84.6116 11.2721 84.6116 11.267C84.6116 11.2541 84.6011 11.2436 84.5882 11.2436H77.4434C76.9507 11.2436 76.5513 10.8442 76.5513 10.3515V8.95235C76.5513 8.45966 76.9507 8.06026 77.4434 8.06026H88.863C89.3557 8.06026 89.7551 8.45966 89.7551 8.95236V10.1076C89.7551 10.3052 89.6895 10.4973 89.5685 10.6536L81.339 21.2891C81.3359 21.2932 81.3341 21.2982 81.3341 21.3034C81.3341 21.3163 81.3446 21.3267 81.3575 21.3267H89.0512C89.5438 21.3267 89.9433 21.7262 89.9433 22.2188V23.7121C89.9433 24.2048 89.5438 24.6042 89.0512 24.6042H77.1298C76.6371 24.6042 76.2377 24.2048 76.2377 23.7121V22.4307Z" fill="white"/>
<path d="M95.2593 12.0416C95.2593 11.5489 94.8598 11.1495 94.3672 11.1495H93.8305C93.3378 11.1495 92.9384 10.7501 92.9384 10.2574V8.95236C92.9384 8.45966 93.3378 8.06026 93.8305 8.06026H94.3672C94.8599 8.06026 95.2593 7.66085 95.2593 7.16816V5.30032C95.2593 4.45353 95.3377 3.70082 95.4945 3.0422C95.6618 2.38358 95.9283 1.8295 96.2942 1.37997C96.6601 0.930432 97.141 0.590667 97.7369 0.360673C98.3433 0.120224 99.0803 0 99.948 0C100.596 0 101.182 0.0313629 101.704 0.0940886C102.237 0.156814 102.687 0.229994 103.053 0.313629C103.235 0.353501 103.409 0.394312 103.575 0.436062C103.957 0.531592 104.213 0.88036 104.213 1.2734V2.45982C104.213 2.95205 103.795 3.34047 103.304 3.30878C103.032 3.28787 102.718 3.27219 102.363 3.26174C102.007 3.25128 101.642 3.24606 101.265 3.24606C100.805 3.24606 100.429 3.28265 100.136 3.35583C99.8435 3.41855 99.6082 3.52832 99.4305 3.68514C99.2633 3.8315 99.143 4.0249 99.0698 4.26535C99.0071 4.5058 98.9758 4.79852 98.9758 5.14351V7.16816C98.9758 7.66085 99.3752 8.06026 99.8679 8.06026H102.318C102.81 8.06026 103.21 8.45966 103.21 8.95236V10.2574C103.21 10.7501 102.81 11.1495 102.318 11.1495H99.8679C99.3752 11.1495 98.9758 11.5489 98.9758 12.0416V23.7121C98.9758 24.2048 98.5764 24.6042 98.0837 24.6042H96.1514C95.6587 24.6042 95.2593 24.2048 95.2593 23.7121V12.0416Z" fill="white"/>
<path d="M108.447 5.25328C108.019 5.25328 107.663 5.22192 107.381 5.15919C107.109 5.09647 106.884 4.9867 106.707 4.82988C106.539 4.67307 106.419 4.45875 106.346 4.18694C106.283 3.91513 106.252 3.56491 106.252 3.13629C106.252 2.70766 106.283 2.35744 106.346 2.08563C106.419 1.80336 106.539 1.5786 106.707 1.41133C106.884 1.24406 107.109 1.12906 107.381 1.06634C107.663 1.00361 108.019 0.972249 108.447 0.972249C108.876 0.972249 109.226 1.00361 109.498 1.06634C109.78 1.12906 110.005 1.24406 110.172 1.41133C110.34 1.5786 110.455 1.80336 110.517 2.08563C110.58 2.35744 110.611 2.70766 110.611 3.13629C110.611 3.56491 110.58 3.91513 110.517 4.18694C110.455 4.45875 110.34 4.67307 110.172 4.82988C110.005 4.9867 109.78 5.09647 109.498 5.15919C109.226 5.22192 108.876 5.25328 108.447 5.25328ZM106.581 8.95236C106.581 8.45966 106.981 8.06026 107.473 8.06026H109.421C109.914 8.06026 110.313 8.45966 110.313 8.95236V23.7121C110.313 24.2048 109.914 24.6042 109.421 24.6042H107.473C106.981 24.6042 106.581 24.2048 106.581 23.7121V8.95236Z" fill="white"/>
<path d="M116.931 12.0416C116.931 11.5489 116.532 11.1495 116.039 11.1495H115.377C114.884 11.1495 114.485 10.7501 114.485 10.2574V8.95236C114.485 8.45966 114.884 8.06026 115.377 8.06026H116.039C116.532 8.06026 116.931 7.66085 116.931 7.16816V5.27793C116.931 4.86025 117.221 4.49849 117.628 4.40734L119.561 3.97522C120.118 3.85056 120.647 4.2746 120.647 4.84581V7.16816C120.647 7.66085 121.047 8.06026 121.54 8.06026H123.927C124.419 8.06026 124.819 8.45966 124.819 8.95236V10.2574C124.819 10.7501 124.419 11.1495 123.927 11.1495H121.54C121.047 11.1495 120.647 11.5489 120.647 12.0416V20.0409C120.647 20.4277 120.674 20.7465 120.726 20.9974C120.789 21.2483 120.893 21.4522 121.04 21.609C121.196 21.7554 121.411 21.8599 121.682 21.9226C121.965 21.9749 122.325 22.001 122.764 22.001C123.172 22.001 123.538 21.9958 123.862 21.9854C124.197 21.9645 124.479 21.9436 124.709 21.9226C125.09 21.8933 125.43 22.1879 125.43 22.57V23.7179C125.43 24.0827 125.209 24.4139 124.863 24.5293C124.667 24.5948 124.464 24.6563 124.254 24.7139C123.888 24.808 123.46 24.8917 122.968 24.9648C122.477 25.0485 121.939 25.0903 121.353 25.0903C120.538 25.0903 119.848 25.0119 119.283 24.8551C118.729 24.6983 118.274 24.463 117.919 24.1494C117.574 23.8253 117.323 23.4228 117.166 22.9419C117.009 22.4506 116.931 21.8808 116.931 21.2327V12.0416Z" fill="white"/>
<path d="M130.48 12.0416C130.48 11.5489 130.08 11.1495 129.588 11.1495H128.926C128.433 11.1495 128.033 10.7501 128.033 10.2574V8.95236C128.033 8.45966 128.433 8.06026 128.926 8.06026H129.588C130.08 8.06026 130.48 7.66085 130.48 7.16816V5.27793C130.48 4.86025 130.77 4.49849 131.177 4.40734L133.109 3.97522C133.667 3.85056 134.196 4.2746 134.196 4.84581V7.16816C134.196 7.66085 134.596 8.06026 135.088 8.06026H137.475C137.968 8.06026 138.368 8.45966 138.368 8.95236V10.2574C138.368 10.7501 137.968 11.1495 137.475 11.1495H135.088C134.596 11.1495 134.196 11.5489 134.196 12.0416V20.0409C134.196 20.4277 134.222 20.7465 134.275 20.9974C134.337 21.2483 134.442 21.4522 134.588 21.609C134.745 21.7554 134.959 21.8599 135.231 21.9226C135.514 21.9749 135.874 22.001 136.313 22.001C136.721 22.001 137.087 21.9958 137.411 21.9854C137.745 21.9645 138.028 21.9436 138.258 21.9226C138.639 21.8933 138.979 22.1879 138.979 22.57V23.7179C138.979 24.0827 138.758 24.4139 138.412 24.5293C138.216 24.5948 138.013 24.6563 137.803 24.7139C137.437 24.808 137.008 24.8917 136.517 24.9648C136.026 25.0485 135.487 25.0903 134.902 25.0903C134.086 25.0903 133.397 25.0119 132.832 24.8551C132.278 24.6983 131.823 24.463 131.468 24.1494C131.123 23.8253 130.872 23.4228 130.715 22.9419C130.558 22.4506 130.48 21.8808 130.48 21.2327V12.0416Z" fill="white"/>
</svg>
