<?xml version="1.0" encoding="UTF-8"?>
<svg id="Layer_1" xmlns="http://www.w3.org/2000/svg" version="1.1" viewBox="0 0 352 335">
  <!-- Generator: Adobe Illustrator 30.2.1, SVG Export Plug-In . SVG Version: 2.1.1 Build 1)  -->
  <defs>
    <style>
      .st0 {
        fill: #d0e999;
      }

      .st1 {
        fill: #fee603;
      }
    </style>
  </defs>
  <polygon class="st1" points="219.9 91.37 197.18 98.49 227.01 114.09 219.9 91.37"/>
  <path class="st0" d="M228.87,147.44c.46-1.07,1.02-2.18,1.69-3.27,4.35-7.12,11.42-10.57,21.58-10.57,8.43,0,15.36,2.81,20.03,8.12,1.49,1.7,2.73,3.62,3.71,5.73h-47.02,0ZM284.34,131c-3.84-4.36-8.54-7.75-13.97-10.07-5.51-2.36-11.64-3.55-18.22-3.55-8.83,0-16.56,1.97-22.99,5.87-5.29,3.2-9.61,7.64-12.85,13.18-5.23,8.96-5.8,17.74-5.85,18.71l-.42,8.5h68.42c-.06.67-.12,1.35-.21,2.04-1.07,8.36-5.07,19.39-18.05,24.52-10.45,4.13-21.73,2.73-29.36.84-8.25-2.05-15.75-5.31-22.92-9.97-5.75-3.74-11.19-8.3-16.53-13.9-3.45,4.53-6.88,8.88-10.14,12.82,13.62,13.76,28.62,22.54,45.68,26.78,6.23,1.55,12.33,2.32,18.18,2.32,7.51,0,14.61-1.27,21.04-3.81,8.12-3.21,14.72-8.25,19.59-14.99,4.59-6.34,7.48-13.93,8.59-22.55,1.83-14.3-1.71-27.35-9.97-36.73h-.02Z"/>
  <path class="st0" d="M79.82,141.71c4.67-5.32,11.61-8.12,20.03-8.12,10.17,0,17.23,3.46,21.58,10.57.67,1.1,1.23,2.2,1.69,3.27h-47.01c.98-2.11,2.22-4.03,3.71-5.73h0ZM211.49,121.21c1.49-2.47,2.98-4.95,4.47-7.42.09-.14.17-.29.26-.44l-14.24-7.47c-3.11,5.02-6.88,11.24-7.44,12.16-6.13,9.97-11.95,20.16-18.54,29.82-5.82-8.47-11.22-17.59-16.65-26.93l-14.01,8.13c6.53,11.26,13.08,22.25,20.41,32.39-.99,1.18-2,2.34-3.05,3.48-6.01,6.63-12.09,11.9-18.6,16.12-7.18,4.66-14.67,7.92-22.92,9.97-7.62,1.89-18.91,3.29-29.36-.84-12.98-5.13-16.99-16.16-18.05-24.52-.09-.68-.16-1.36-.21-2.04h68.42l-.42-8.5c-.05-.97-.62-9.75-5.85-18.71-3.24-5.54-7.56-9.98-12.85-13.18-6.43-3.89-14.17-5.87-22.99-5.87-6.58,0-12.72,1.2-18.22,3.55-5.43,2.33-10.13,5.71-13.97,10.07-8.27,9.39-11.81,22.44-9.98,36.74,1.1,8.62,3.99,16.21,8.59,22.55,4.88,6.74,11.48,11.78,19.59,14.99,6.43,2.53,13.53,3.81,21.04,3.81,5.85,0,11.95-.77,18.18-2.32,18.72-4.65,34.95-14.77,49.61-30.92,10.89-12,19.4-25.72,27.73-39.56,3.02-5.02,6.04-10.04,9.07-15.06h-.02Z"/>
  <polygon class="st0" points="88.73 217.03 97.92 217.03 97.92 235.23 108.03 235.23 108.03 243.63 88.73 243.63 88.73 217.03 88.73 217.03"/>
  <polygon class="st0" points="126.58 217.03 145.73 217.03 145.73 223.83 135.51 223.83 135.51 226.91 144.75 226.91 144.75 233.52 135.51 233.52 135.51 236.71 146.12 236.71 146.12 243.63 126.58 243.63 126.58 217.03 126.58 217.03"/>
  <polygon class="st0" points="162.91 217.03 172.72 217.03 175.26 225.27 177.16 231.66 177.32 231.66 179.25 225.27 181.8 217.03 191.56 217.03 182.03 243.63 172.45 243.63 162.91 217.03 162.91 217.03"/>
  <polygon class="st0" points="209.28 217.03 228.43 217.03 228.43 223.83 218.21 223.83 218.21 226.91 227.44 226.91 227.44 233.52 218.21 233.52 218.21 236.71 228.81 236.71 228.81 243.63 209.28 243.63 209.28 217.03 209.28 217.03"/>
  <polygon class="st0" points="247.89 217.03 257.08 217.03 257.08 235.23 267.2 235.23 267.2 243.63 247.89 243.63 247.89 217.03 247.89 217.03"/>
</svg>