<?xml version="1.0" encoding="UTF-8"?>
<svg id="Layer_1" data-name="Layer 1" xmlns="http://www.w3.org/2000/svg" viewBox="0 0 100 95.17">
  <defs>
    <style>
      .cls-1 {
        fill: #d0e999;
      }

      .cls-2 {
        fill: #fee603;
      }
    </style>
  </defs>
  <polygon class="cls-2" points="66.63 18.74 58.02 21.44 69.32 27.35 66.63 18.74"/>
  <path class="cls-1" d="M70.02,39.99c.17-.41.39-.83.64-1.24,1.65-2.7,4.33-4,8.18-4,3.19,0,5.82,1.06,7.59,3.08.56.64,1.03,1.37,1.41,2.17h-17.81,0ZM91.04,33.76c-1.45-1.65-3.24-2.94-5.29-3.81-2.09-.89-4.41-1.34-6.9-1.34-3.35,0-6.27.75-8.71,2.22-2,1.21-3.64,2.89-4.87,4.99-1.98,3.39-2.2,6.72-2.22,7.09l-.16,3.22h25.92c-.02.25-.05.51-.08.77-.41,3.17-1.92,7.35-6.84,9.29-3.96,1.56-8.23,1.03-11.12.32-3.13-.78-5.97-2.01-8.68-3.78-2.18-1.42-4.24-3.14-6.26-5.27-1.31,1.72-2.61,3.36-3.84,4.86,5.16,5.21,10.84,8.54,17.31,10.15,2.36.59,4.67.88,6.89.88,2.85,0,5.53-.48,7.97-1.44,3.08-1.22,5.58-3.13,7.42-5.68,1.74-2.4,2.83-5.28,3.25-8.54.69-5.42-.65-10.36-3.78-13.91h0Z"/>
  <path class="cls-1" d="M13.56,37.82c1.77-2.02,4.4-3.08,7.59-3.08,3.85,0,6.53,1.31,8.18,4,.25.42.47.83.64,1.24H12.15c.37-.8.84-1.53,1.41-2.17h0ZM63.44,30.05c.56-.94,1.13-1.88,1.69-2.81.03-.05.06-.11.1-.17l-5.39-2.83c-1.18,1.9-2.61,4.26-2.82,4.61-2.32,3.78-4.53,7.64-7.02,11.3-2.2-3.21-4.25-6.66-6.31-10.2l-5.31,3.08c2.47,4.27,4.96,8.43,7.73,12.27-.38.45-.76.89-1.16,1.32-2.28,2.51-4.58,4.51-7.05,6.11-2.72,1.77-5.56,3-8.68,3.78-2.89.72-7.16,1.25-11.12-.32-4.92-1.94-6.44-6.12-6.84-9.29-.03-.26-.06-.52-.08-.77h25.92l-.16-3.22c-.02-.37-.23-3.69-2.22-7.09-1.23-2.1-2.86-3.78-4.87-4.99-2.44-1.47-5.37-2.22-8.71-2.22-2.49,0-4.82.45-6.9,1.34-2.06.88-3.84,2.16-5.29,3.81-3.13,3.56-4.47,8.5-3.78,13.92.42,3.27,1.51,6.14,3.25,8.54,1.85,2.55,4.35,4.46,7.42,5.68,2.44.96,5.13,1.44,7.97,1.44,2.22,0,4.53-.29,6.89-.88,7.09-1.76,13.24-5.6,18.79-11.71,4.13-4.55,7.35-9.74,10.51-14.99,1.14-1.9,2.29-3.8,3.44-5.71,0,0,0,0,0,0Z"/>
  <polygon class="cls-1" points="16.93 66.35 20.42 66.35 20.42 73.24 24.25 73.24 24.25 76.43 16.93 76.43 16.93 66.35 16.93 66.35"/>
  <polygon class="cls-1" points="31.27 66.35 38.53 66.35 38.53 68.92 34.66 68.92 34.66 70.09 38.16 70.09 38.16 72.6 34.66 72.6 34.66 73.8 38.67 73.8 38.67 76.43 31.27 76.43 31.27 66.35 31.27 66.35"/>
  <polygon class="cls-1" points="45.04 66.35 48.75 66.35 49.71 69.47 50.43 71.89 50.49 71.89 51.23 69.47 52.19 66.35 55.89 66.35 52.28 76.43 48.65 76.43 45.04 66.35 45.04 66.35"/>
  <polygon class="cls-1" points="62.6 66.35 69.86 66.35 69.86 68.92 65.98 68.92 65.98 70.09 69.48 70.09 69.48 72.6 65.98 72.6 65.98 73.8 70 73.8 70 76.43 62.6 76.43 62.6 66.35 62.6 66.35"/>
  <polygon class="cls-1" points="77.23 66.35 80.71 66.35 80.71 73.24 84.54 73.24 84.54 76.43 77.23 76.43 77.23 66.35 77.23 66.35"/>
</svg>