<?xml version="1.0" encoding="UTF-8"?>
<svg id="Layer_1" data-name="Layer 1" xmlns="http://www.w3.org/2000/svg" viewBox="0 0 261.63 214.4">
  <defs>
    <style>
      .cls-1 {
        letter-spacing: .1em;
      }

      .cls-1, .cls-2, .cls-3, .cls-4, .cls-5, .cls-6 {
        isolation: isolate;
      }

      .cls-1, .cls-6 {
        font-family: Georgia, Georgia;
        font-size: 13.15px;
      }

      .cls-7 {
        fill: #a7dad3;
      }

      .cls-8 {
        fill: #919395;
      }

      .cls-2 {
        letter-spacing: .23em;
      }

      .cls-2, .cls-4, .cls-5 {
        font-family: ArialMT, Arial;
        font-size: 51.15px;
      }

      .cls-9 {
        fill: #fff;
      }

      .cls-4 {
        letter-spacing: .16em;
      }

      .cls-10 {
        fill: #00a88b;
      }

      .cls-11 {
        fill: #0f2f50;
      }

      .cls-12 {
        fill: #fbed1d;
        stroke: #fff;
        stroke-miterlimit: 10;
        stroke-width: 1.58px;
      }

      .cls-5 {
        letter-spacing: .12em;
      }

      .cls-6 {
        letter-spacing: .1em;
      }
    </style>
  </defs>
  <path class="cls-11" d="M5.01,19.55h68.24c-5.19,7.33-8.99,15.7-11.07,24.73H14.23c-1.73,0-3.32-.88-4.23-2.34L.77,27.17c-2.08-3.32.32-7.62,4.23-7.62h.01Z"/>
  <path class="cls-11" d="M260.88,27.15l-9.18,14.78c-.91,1.46-2.5,2.34-4.23,2.34h-47.99c-2.08-9.02-5.88-17.4-11.07-24.73h68.24c3.9,0,6.29,4.28,4.23,7.6h0Z"/>
  <path class="cls-10" d="M60.4,60.05c0,3.96.32,7.84.97,11.62h-29.73c-1.46,0-2.82-.73-3.58-1.94l-7.85-12.33c-1.75-2.76.28-6.36,3.6-6.36h37.17c-.38,2.95-.57,5.95-.57,9.01h0Z"/>
  <path class="cls-10" d="M241.47,57.39l-7.81,12.33c-.77,1.23-2.13,1.96-3.6,1.96h-29.76c.64-3.79.97-7.66.97-11.62,0-3.06-.19-6.05-.57-9.01h37.17c3.32,0,5.35,3.58,3.6,6.35h0Z"/>
  <path class="cls-7" d="M63.4,80.37c2.28,7.57,5.82,14.62,10.35,20.88h-26.2c-1.23,0-2.37-.75-3.01-1.97l-6.59-12.47c-1.48-2.79.23-6.43,3.03-6.43h22.43-.01Z"/>
  <path class="cls-7" d="M223.73,86.81l-6.57,12.46c-.64,1.24-1.78,1.99-3.01,1.99h-26.23c4.53-6.26,8.07-13.31,10.35-20.88h22.43c2.79,0,4.5,3.63,3.03,6.43h0Z"/>
  <circle class="cls-8" cx="130.83" cy="66.96" r="51"/>
  <g>
    <circle class="cls-12" cx="130.83" cy="52.87" r="52.08"/>
    <g>
      <circle class="cls-9" cx="130.73" cy="53.1" r="8.26"/>
      <circle class="cls-9" cx="140.36" cy="30.19" r="8.26"/>
      <circle class="cls-9" cx="153.46" cy="61.36" r="8.26" transform="translate(68.31 203.01) rotate(-80.78)"/>
      <circle class="cls-9" cx="122.46" cy="76.01" r="8.26"/>
      <circle class="cls-9" cx="108.74" cy="45.13" r="8.26"/>
      <ellipse class="cls-9" cx="129.17" cy="9.2" rx="8.26" ry="4.13"/>
      <ellipse class="cls-9" cx="98.9" cy="23.33" rx="8.26" ry="4.13" transform="translate(14.94 80.57) rotate(-47.56)"/>
      <ellipse class="cls-9" cx="164.25" cy="81.5" rx="8.26" ry="4.13" transform="translate(-6.74 147.72) rotate(-47.56)"/>
      <ellipse class="cls-9" cx="162.51" cy="22.5" rx="4.13" ry="8.26" transform="translate(44.61 136.58) rotate(-51.94)"/>
      <ellipse class="cls-9" cx="99.68" cy="82.27" rx="4.13" ry="8.26" transform="translate(-29.2 72.57) rotate(-35.23)"/>
      <ellipse class="cls-9" cx="88.6" cy="54.58" rx="4.13" ry="8.26" transform="translate(-4.17 7.43) rotate(-4.69)"/>
      <ellipse class="cls-9" cx="132.21" cy="96.67" rx="8.26" ry="4.13" transform="translate(-2.24 3.14) rotate(-1.35)"/>
      <ellipse class="cls-9" cx="172.63" cy="48.72" rx="4.13" ry="8.26" transform="translate(-5.57 28.26) rotate(-9.21)"/>
    </g>
  </g>
  <g class="cls-3">
    <text class="cls-2" transform="translate(43.26 171)"><tspan x="0" y="0">TN</tspan></text>
    <text class="cls-5" transform="translate(125.36 171)"><tspan x="0" y="0">P</tspan></text>
    <text class="cls-4" transform="translate(159.79 171)"><tspan x="0" y="0">A</tspan></text>
  </g>
  <g class="cls-3">
    <text class="cls-6" transform="translate(20.19 191.41) scale(1.13 1)"><tspan x="0" y="0">TAMILNADU PICKLEBALL </tspan></text>
    <text class="cls-1" transform="translate(20.19 210.41) scale(1.13 1)"><tspan x="0" y="0" xml:space="preserve">         ASSOCIATION</tspan></text>
  </g>
</svg>